<svg xmlns="http://www.w3.org/2000/svg" width="48.002" height="56.001" viewBox="0 0 48.002 56.001">
  <g id="그룹_18403" data-name="그룹 18403" transform="translate(-969.997 -328)">
    <path id="합치기_1" data-name="합치기 1" d="M22244.666-2670H22230a4.006,4.006,0,0,1-4-4v-40a4,4,0,0,1,4-4h40a4,4,0,0,1,4,4v40a4,4,0,0,1-4,4h-14.664l-5.332,8Z" transform="translate(-21256 3046)" fill="#a72b2a"/>
    <path id="패스_4798" data-name="패스 4798" d="M111,28a13.014,13.014,0,1,0,9.188,3.812A13,13,0,0,0,111,28Zm-1.244,6.426a1.243,1.243,0,1,1,2.487,0v8.537a1.243,1.243,0,1,1-2.487,0ZM111,48.815h0a1.244,1.244,0,1,1,.879-.364,1.244,1.244,0,0,1-.879.364Z" transform="translate(882.997 311.003)" fill="#fff"/>
  </g>
</svg>
