<svg xmlns="http://www.w3.org/2000/svg" width="16" height="16" viewBox="0 0 16 16">
  <path id="noun-attention-3164926" d="M124.67,46.664a8,8,0,1,0,4,1.072,8,8,0,0,0-4-1.072Zm.568,12.568a.92.92,0,0,1-.264.168.752.752,0,0,1-.608,0,.921.921,0,0,1-.264-.168.8.8,0,0,1,.72-1.352.478.478,0,0,1,.152.048.609.609,0,0,1,.144.072,1.251,1.251,0,0,1,.12.1.839.839,0,0,1,.232.568.8.8,0,0,1-.232.568Zm.232-3.768a.8.8,0,1,1-1.6,0v-4.8a.8.8,0,1,1,1.6,0Z" transform="translate(-116.67 -46.664)" fill="#bbb"/>
</svg>
