<svg xmlns="http://www.w3.org/2000/svg" width="24" height="24" viewBox="0 0 24 24">
  <g id="그룹_19969" data-name="그룹 19969" transform="translate(-136 -211)">
    <rect id="사각형_15280" data-name="사각형 15280" width="24" height="24" transform="translate(136 211)" fill="none"/>
    <path id="패스_17306" data-name="패스 17306" d="M216.29,147.388h-1.13v-.419a1.345,1.345,0,0,0-2.69,0v.419h-4.84v-.419a1.345,1.345,0,0,0-2.69,0v.419h-1.03A2.737,2.737,0,0,0,201.06,150a.276.276,0,0,0-.01.09v9.129a2.907,2.907,0,0,0,2.86,2.906h12.28a2.9,2.9,0,0,0,2.86-2.906v-9.129A2.734,2.734,0,0,0,216.29,147.388Zm.96,11.836a1.2,1.2,0,0,1-1.05,1.288H203.91a1.213,1.213,0,0,1-1.06-1.288v-5.9h14.4Z" transform="translate(-62.05 69.37)" fill="#bbb"/>
  </g>
</svg>
