<svg xmlns="http://www.w3.org/2000/svg" width="48.002" height="56.001" viewBox="0 0 48.002 56.001">
  <g id="그룹_5509" data-name="그룹 5509" transform="translate(-1649.998 -484.999)">
    <path id="합치기_2" data-name="합치기 2" d="M22244.666-2670H22230a4.006,4.006,0,0,1-4-4v-40a4,4,0,0,1,4-4h40a4,4,0,0,1,4,4v40a4,4,0,0,1-4,4h-14.664l-5.332,8Z" transform="translate(-20576 3202.999)" fill="#333"/>
    <g id="noun-destination-3553775" transform="translate(1472.398 381.999)">
      <path id="패스_4581" data-name="패스 4581" d="M201.6,288.9c7.98,0,14-3.321,14-7.724,0-3.457-3.712-6.247-9.172-7.285v2.984c3.785.864,6.276,2.655,6.276,4.3,0,2.279-4.75,4.828-11.1,4.828s-11.1-2.549-11.1-4.828c0-1.651,2.491-3.442,6.276-4.3v-2.984c-5.46,1.038-9.172,3.828-9.172,7.285,0,4.4,6.02,7.724,14,7.724Z" transform="translate(0 -148.008)" fill="#fff"/>
      <path id="패스_4582" data-name="패스 4582" d="M292.262,122.342v11.794h2.9V122.342a5.31,5.31,0,1,0-2.9,0Z" transform="translate(-92.109 0)" fill="#fff"/>
    </g>
  </g>
</svg>
