<svg xmlns="http://www.w3.org/2000/svg" width="48.002" height="56.001" viewBox="0 0 48.002 56.001">
  <g id="그룹_5504" data-name="그룹 5504" transform="translate(-1030.999 -440.999)">
    <g id="합치기_1" data-name="합치기 1" transform="translate(-21195 3158.999)" fill="#fff">
      <path d="M 22250.001953125 -2663.350341796875 L 22245.2890625 -2670.414306640625 L 22245.06640625 -2670.748046875 L 22244.666015625 -2670.748046875 L 22230 -2670.748046875 C 22228.20703125 -2670.748046875 22226.748046875 -2672.20703125 22226.748046875 -2674.00048828125 L 22226.748046875 -2714.002685546875 C 22226.748046875 -2715.793212890625 22228.20703125 -2717.249755859375 22230 -2717.249755859375 L 22269.998046875 -2717.249755859375 C 22271.791015625 -2717.249755859375 22273.25 -2715.793212890625 22273.25 -2714.002685546875 L 22273.25 -2674.00048828125 C 22273.25 -2672.20703125 22271.791015625 -2670.748046875 22269.998046875 -2670.748046875 L 22255.333984375 -2670.748046875 L 22254.931640625 -2670.748046875 L 22254.708984375 -2670.4140625 L 22250.001953125 -2663.350341796875 Z" stroke="none"/>
      <path d="M 22250.001953125 -2664.702392578125 L 22254.53125 -2671.498046875 L 22269.998046875 -2671.498046875 C 22271.376953125 -2671.498046875 22272.5 -2672.62060546875 22272.5 -2674.00048828125 L 22272.5 -2714.002685546875 C 22272.5 -2715.379638671875 22271.376953125 -2716.499755859375 22269.998046875 -2716.499755859375 L 22230 -2716.499755859375 C 22228.62109375 -2716.499755859375 22227.498046875 -2715.379638671875 22227.498046875 -2714.002685546875 L 22227.498046875 -2674.00048828125 C 22227.498046875 -2672.62060546875 22228.62109375 -2671.498046875 22230 -2671.498046875 L 22245.46875 -2671.498046875 L 22250.001953125 -2664.702392578125 M 22250.001953125 -2661.99853515625 L 22244.666015625 -2669.998046875 L 22230 -2669.998046875 C 22227.79296875 -2669.998046875 22225.998046875 -2671.79248046875 22225.998046875 -2674.00048828125 L 22225.998046875 -2714.002685546875 C 22225.998046875 -2716.2109375 22227.79296875 -2717.999755859375 22230 -2717.999755859375 L 22269.998046875 -2717.999755859375 C 22272.2109375 -2717.999755859375 22274 -2716.2109375 22274 -2714.002685546875 L 22274 -2674.00048828125 C 22274 -2671.79248046875 22272.2109375 -2669.998046875 22269.998046875 -2669.998046875 L 22255.333984375 -2669.998046875 L 22250.001953125 -2661.99853515625 Z" stroke="none" fill="#333"/>
    </g>
    <path id="Icon_awesome-warehouse" data-name="Icon awesome-warehouse" d="M22.05,15.4H5.968a.351.351,0,0,0-.35.35l0,2.1a.351.351,0,0,0,.35.35H22.05a.351.351,0,0,0,.35-.35v-2.1A.351.351,0,0,0,22.05,15.4Zm0,4.2H5.954a.351.351,0,0,0-.35.35l0,2.1a.351.351,0,0,0,.35.35h16.1a.351.351,0,0,0,.35-.35v-2.1A.351.351,0,0,0,22.05,19.6Zm0-8.4H5.976a.351.351,0,0,0-.35.35l0,2.1a.351.351,0,0,0,.35.35H22.05a.351.351,0,0,0,.35-.35v-2.1A.351.351,0,0,0,22.05,11.2Zm4.659-6.081L14.805.163a2.107,2.107,0,0,0-1.614,0L1.291,5.119A2.105,2.105,0,0,0,0,7.058V22.051a.351.351,0,0,0,.35.35h3.5a.351.351,0,0,0,.35-.35V11.2A1.415,1.415,0,0,1,5.626,9.8H22.374A1.415,1.415,0,0,1,23.8,11.2v10.85a.351.351,0,0,0,.35.35h3.5a.351.351,0,0,0,.35-.35V7.058A2.105,2.105,0,0,0,26.709,5.119Z" transform="translate(1041 453.207)" fill="#333"/>
  </g>
</svg>
