<svg xmlns="http://www.w3.org/2000/svg" width="48.002" height="56.001" viewBox="0 0 48.002 56.001">
  <g id="그룹_5634" data-name="그룹 5634" transform="translate(-969.997 -328)">
    <path id="합치기_1" data-name="합치기 1" d="M22244.666-2670H22230a4.006,4.006,0,0,1-4-4v-40a4,4,0,0,1,4-4h40a4,4,0,0,1,4,4v40a4,4,0,0,1-4,4h-14.664l-5.332,8Z" transform="translate(-21256 3046)" fill="#039be5"/>
    <g id="그룹_5354" data-name="그룹 5354" transform="translate(21086.537 -4074)">
      <path id="패스_4537" data-name="패스 4537" d="M275.337,156.8h20.2a.593.593,0,0,1,.588.588v13.275a.582.582,0,0,1-.588.575H292.9a3.923,3.923,0,0,0-7.687,0H274.749v-13.85a.593.593,0,0,1,.588-.588Z" transform="translate(-20372.66 4260.2)" fill="#fff" fill-rule="evenodd"/>
      <path id="패스_4538" data-name="패스 4538" d="M160.686,183.05h3.75v4.562h-6.762c.422-.859.907-1.82,1.437-2.7a9.057,9.057,0,0,1,1.037-1.45,1.925,1.925,0,0,1,.537-.412Z" transform="translate(-20263.947 4235.825)" fill="#fff" fill-rule="evenodd"/>
      <path id="패스_4539" data-name="패스 4539" d="M126.082,269.15h8.937v4.1a3.88,3.88,0,0,0-2.387-.825c-2.089.087-3.522,1.153-3.838,3.137h-2.713a.084.084,0,0,1-.088-.088V269.25a.094.094,0,0,1,.088-.1Z" transform="translate(-20234.531 4155.875)" fill="#fff" fill-rule="evenodd"/>
      <circle id="타원_76" data-name="타원 76" cx="2.414" cy="2.414" r="2.414" transform="translate(-20085.918 4429.727)" fill="#fff"/>
      <circle id="타원_77" data-name="타원 77" cx="2.414" cy="2.414" r="2.414" transform="translate(-20104.352 4429.727)" fill="#fff"/>
    </g>
  </g>
</svg>
