<svg xmlns="http://www.w3.org/2000/svg" width="48.002" height="56.001" viewBox="0 0 48.002 56.001">
  <g id="그룹_5505" data-name="그룹 5505" transform="translate(-969.998 -328)">
    <path id="합치기_1" data-name="합치기 1" d="M22244.666-2670H22230a4,4,0,0,1-4-4v-40a4.006,4.006,0,0,1,4-4h40a4,4,0,0,1,4,4v40a4,4,0,0,1-4,4h-14.664l-5.332,8Z" transform="translate(-21256 3046)" fill="#a72b2a"/>
    <path id="패스_4798" data-name="패스 4798" d="M111,28a12.751,12.751,0,0,0-9,4,12.752,12.752,0,0,0-4,9,12.752,12.752,0,0,0,4,9,12.125,12.125,0,0,0,18,0,12.752,12.752,0,0,0,4-9,12.771,12.771,0,0,0-4-9A12.772,12.772,0,0,0,111,28Zm-1,6c0-.444-.385-.778,0-1a3.085,3.085,0,0,1,2,0c.385.222,0,.556,0,1v9c0,.444.385.778,0,1a3.085,3.085,0,0,1-2,0c-.385-.222,0-.556,0-1Zm1,15h0c-.33,0-.767-.767-1-1s0,.33,0,0-.233-.767,0-1,.67-1,1-1,.767.767,1,1,0,.67,0,1,.233-.233,0,0S111.334,49,111,49Z" transform="translate(882.997 311.003)" fill="#fff"/>
  </g>
</svg>
